<svg width="1200" height="900" viewBox="0 0 1200 900" fill="none" xmlns="http://www.w3.org/2000/svg">
  <rect width="1200" height="900" fill="#D9E4DD"/>
  <rect x="248" y="156" width="704" height="588" rx="54" fill="#243832"/>
  <path d="M316 238C316 217.013 333.013 200 354 200H846C866.987 200 884 217.013 884 238V677C884 697.987 866.987 715 846 715H354C333.013 715 316 697.987 316 677V238Z" fill="#F4F0E8"/>
  <path d="M394 286H806C827.539 286 845 303.461 845 325V651C845 672.539 827.539 690 806 690H394C372.461 690 355 672.539 355 651V325C355 303.461 372.461 286 394 286Z" fill="#2F4841"/>
  <path d="M428 327H772C786.912 327 799 339.088 799 354V457C799 471.912 786.912 484 772 484H428C413.088 484 401 471.912 401 457V354C401 339.088 413.088 327 428 327Z" fill="#D6A84F"/>
  <path d="M431 524H769C785.016 524 798 536.984 798 553V618C798 634.016 785.016 647 769 647H431C414.984 647 402 634.016 402 618V553C402 536.984 414.984 524 431 524Z" fill="#F7F4EE"/>
  <path d="M493 190C493 149.683 525.683 117 566 117H634C674.317 117 707 149.683 707 190H660C660 175.641 648.359 164 634 164H566C551.641 164 540 175.641 540 190H493Z" fill="#17211D"/>
  <circle cx="600" cy="585" r="30" fill="#D6A84F"/>
  <rect x="468" y="568" width="80" height="18" rx="9" fill="#A9B9AF"/>
  <rect x="652" y="568" width="80" height="18" rx="9" fill="#A9B9AF"/>
</svg>
